#!OML:ASF F:\VICON\USERDATA\INSTALL\rory3\rory3.ASF
:FULLY-SPECIFIED
:DEGREES
4865
root 10.9423 17.8657 -8.7079 -903.257 7.68301 -899.68
lowerback 12.1204 0.811334 -4.68394
upperback 1.3524 0.648286 0.907494
thorax -5.43719 0.49093 3.48896
lowerneck -10.4249 -8.83407 -11.4093
upperneck 40.9011 -7.66191 5.58429
head 17.6834 -2.59331 3.7271
rclavicle 1.1691e-014 -3.67752e-015
rhumerus -39.3721 -23.337 -70.9891
rradius 32.1017
rwrist 6.67885
rhand -19.0646 10.3415
rfingers 7.12502
rthumb 7.24275 -19.5145
lclavicle 1.1691e-014 -3.67752e-015
lhumerus -32.3873 7.11689 78.2592
lradius 34.7125
lwrist -0.425799
lhand -21.0722 23.4418
lfingers 7.12502
lthumb 5.30467 53.3554
rfemur -11.921 -5.87704 11.3465
rtibia 38.2503
rfoot -19.5552 -2.12109
rtoes -8.49716
lfemur -2.9864 -1.10963 -21.7254
ltibia 23.6049
lfoot -13.9722 -2.81071
ltoes -3.44477
4866
root 10.977 17.8705 -8.7138 -903.137 7.61047 -899.754
lowerback 12.0421 0.830756 -4.77891
upperback 1.32436 0.662768 0.92501
thorax -5.42599 0.4993 3.55926
lowerneck -10.5019 -8.87036 -11.3591
upperneck 40.8449 -7.74427 5.57339
head 17.6761 -2.62571 3.69136
rclavicle -1.63749e-014 -8.24956e-015
rhumerus -39.5126 -23.7021 -70.8008
rradius 32.3652
rwrist 6.60203
rhand -19.0309 10.4137
rfingers 7.12502
rthumb 7.27534 -19.4412
lclavicle -1.63749e-014 -8.24956e-015
lhumerus -32.3286 6.71642 78.4719
lradius 34.7338
lwrist -0.442704
lhand -21.2764 22.5013
lfingers 7.12502
lthumb 5.10744 52.4197
rfemur -11.9143 -5.62362 10.7974
rtibia 37.7577
rfoot -19.2111 -2.05876
rtoes -7.58062
lfemur -2.97006 -1.08087 -21.6687
ltibia 23.3245
lfoot -13.8414 -2.95602
ltoes -3.21772
4867
root 11.0143 17.8751 -8.72434 -903.067 7.57297 -899.725
lowerback 11.9319 0.84547 -4.77627
upperback 1.33428 0.690219 0.974068
thorax -5.35747 0.510963 3.60551
lowerneck -10.5027 -8.88245 -11.3774
upperneck 40.7419 -7.81172 5.64673
head 17.6304 -2.65298 3.70913
rclavicle 8.3738e-015 1.10325e-014
rhumerus -39.4843 -24.0863 -70.6129
rradius 32.2679
rwrist 6.71327
rhand -18.9973 10.3193
rfingers 7.12502
rthumb 7.30778 -19.5345
lclavicle 8.3738e-015 1.10325e-014
lhumerus -32.3529 6.5178 78.6229
lradius 34.8994
lwrist -0.672368
lhand -21.0932 22.2898
lfingers 7.12502
lthumb 5.28439 52.204
rfemur -11.8295 -5.35454 10.3828
rtibia 37.2459
rfoot -18.9113 -2.18497
rtoes -8.27502
lfemur -2.86662 -1.05613 -21.5021
ltibia 23.0952
lfoot -13.7708 -2.99536
ltoes -3.78392
4868
root 11.0531 17.8807 -8.73881 -903.099 7.51494 -899.641
lowerback 11.8694 0.838007 -4.71014
upperback 1.38376 0.698596 1.02757
thorax -5.2711 0.512219 3.6234
lowerneck -10.4708 -8.8979 -11.3774
upperneck 40.7807 -7.81607 5.63719
head 17.6454 -2.65132 3.70787
rclavicle 5.50385e-015 -5.66536e-015
rhumerus -39.3268 -24.1269 -70.6331
rradius 32.1887
rwrist 6.61394
rhand -18.9271 10.1308
rfingers 7.12502
rthumb 7.37553 -19.7206
lclavicle 5.50385e-015 -5.66536e-015
lhumerus -32.4057 6.29643 78.7469
lradius 35.005
lwrist -0.79865
lhand -21.2385 21.971
lfingers 7.12502
lthumb 5.1441 51.8886
rfemur -11.6092 -5.10899 10.0195
rtibia 36.679
rfoot -18.5717 -2.29375
rtoes -8.42729
lfemur -2.64856 -1.05858 -21.2757
ltibia 22.9255
lfoot -13.7728 -3.04307
ltoes -4.33739
4869
root 11.0944 17.8845 -8.74624 -903.07 7.41886 -899.61
lowerback 12.0125 0.855604 -4.75367
upperback 1.27959 0.70662 1.10367
thorax -5.46344 0.522656 3.7269
lowerneck -10.5198 -8.98517 -11.6765
upperneck 40.7596 -8.02531 6.017
head 17.7257 -2.73371 3.89958
rclavicle 1.18774e-014 -1.26477e-014
rhumerus -39.4385 -24.0041 -70.5574
rradius 32.2984
rwrist 6.32096
rhand -18.8308 10.1428
rfingers 7.12502
rthumb 7.4685 -19.7053
lclavicle 1.18774e-014 -1.26477e-014
lhumerus -32.5847 6.13745 78.9064
lradius 34.9652
lwrist -0.918812
lhand -21.5848 21.5424
lfingers 7.12502
lthumb 4.8097 51.4678
rfemur -11.4443 -4.81104 9.61555
rtibia 36.0744
rfoot -18.1448 -2.57201
rtoes -8.14923
lfemur -2.55037 -1.05889 -21.0775
ltibia 22.7323
lfoot -13.7084 -3.1822
ltoes -4.5721
4870
root 11.1363 17.8905 -8.75344 -902.949 7.28117 -899.474
lowerback 12.0393 0.820442 -4.65164
upperback 1.18832 0.669958 1.18725
thorax -5.57142 0.505439 3.76374
lowerneck -10.4288 -8.94425 -11.6096
upperneck 40.7252 -7.94976 5.94156
head 17.66 -2.69982 3.86674
rclavicle 1.82928e-014 -5.93869e-015
rhumerus -39.575 -23.9041 -70.5542
rradius 32.5136
rwrist 6.21941
rhand -18.8269 10.09
rfingers 7.12502
rthumb 7.47221 -19.758
lclavicle 1.82928e-014 -5.93869e-015
lhumerus -32.7243 6.05724 79.0026
lradius 34.9846
lwrist -1.12376
lhand -21.3089 21.8281
lfingers 7.12502
lthumb 5.07609 51.7473
rfemur -11.3199 -4.49902 9.34424
rtibia 35.4601
rfoot -17.7315 -3.06394
rtoes -8.55473
lfemur -2.5221 -1.16419 -20.7671
ltibia 22.4791
lfoot -13.54 -3.32154
ltoes -4.65571
4871
root 11.1745 17.9005 -8.76693 -902.89 7.18764 -899.374
lowerback 11.9807 0.793239 -4.51976
upperback 1.16341 0.653922 1.22777
thorax -5.56264 0.494316 3.73462
lowerneck -10.3702 -8.9079 -11.4915
upperneck 40.7644 -7.8726 5.86094
head 17.6417 -2.65257 3.82798
rclavicle 7.23235e-015 5.57839e-015
rhumerus -39.5425 -23.8209 -70.6176
rradius 32.5415
rwrist 6.22622
rhand -18.9829 10.327
rfingers 7.12502
rthumb 7.32167 -19.5263
lclavicle 7.23235e-015 5.57839e-015
lhumerus -32.7784 5.95766 79.0677
lradius 34.9677
lwrist -1.26253
lhand -21.0896 22.2199
lfingers 7.12502
lthumb 5.28785 52.1339
rfemur -11.1476 -4.17483 8.99241
rtibia 34.8546
rfoot -17.2169 -3.27418
rtoes -8.34381
lfemur -2.36726 -1.3766 -20.5537
ltibia 22.2079
lfoot -13.4428 -3.21853
ltoes -5.07101
4872
root 11.2128 17.908 -8.78272 -902.915 7.14555 -899.521
lowerback 11.9138 0.806564 -4.63411
upperback 1.18601 0.658442 1.19467
thorax -5.50268 0.497047 3.76388
lowerneck -10.3688 -8.90974 -11.495
upperneck 40.7852 -7.90078 5.95854
head 17.6641 -2.64749 3.87244
rclavicle 1.04447e-014 -4.14963e-015
rhumerus -39.4155 -23.885 -70.6263
rradius 32.4218
rwrist 6.21035
rhand -19.0126 10.6002
rfingers 7.12502
rthumb 7.29298 -19.2541
lclavicle 1.04447e-014 -4.14963e-015
lhumerus -32.762 5.83063 79.132
lradius 34.907
lwrist -1.16831
lhand -21.2266 22.3575
lfingers 7.12502
lthumb 5.15551 52.2748
rfemur -10.8999 -3.75935 8.36253
rtibia 34.2283
rfoot -16.6864 -3.3509
rtoes -8.00544
lfemur -2.134 -1.51652 -20.6152
ltibia 21.9436
lfoot -13.3859 -3.13705
ltoes -5.10326
4873
root 11.2548 17.913 -8.79234 -902.919 7.03565 -899.563
lowerback 11.9322 0.803568 -4.67655
upperback 1.19914 0.649923 1.20192
thorax -5.4987 0.494097 3.79703
lowerneck -10.2956 -8.89488 -11.3939
upperneck 40.7332 -7.87287 5.85926
head 17.5952 -2.63413 3.81081
rclavicle 7.47617e-015 1.74558e-015
rhumerus -39.4046 -24.1521 -70.4995
rradius 32.4265
rwrist 6.38773
rhand -18.8587 10.7058
rfingers 7.12502
rthumb 7.44154 -19.1433
lclavicle 7.47617e-015 1.74558e-015
lhumerus -32.7015 5.80852 79.1589
lradius 34.7863
lwrist -1.25434
lhand -21.2571 22.3294
lfingers 7.12502
lthumb 5.1261 52.2474
rfemur -10.5967 -3.32974 7.89875
rtibia 33.5743
rfoot -16.1232 -3.6101
rtoes -8.14028
lfemur -1.98433 -1.60919 -20.5206
ltibia 21.7146
lfoot -13.3048 -3.16882
ltoes -5.27781
4874
root 11.2989 17.9221 -8.80135 -902.841 6.89901 -899.384
lowerback 11.916 0.78268 -4.48999
upperback 1.17168 0.649753 1.27209
thorax -5.51761 0.490941 3.76545
lowerneck -10.2197 -8.90039 -11.2371
upperneck 40.661 -7.85553 5.64717
head 17.5038 -2.6332 3.68252
rclavicle 1.03853e-014 1.84746e-014
rhumerus -39.509 -24.1779 -70.4334
rradius 32.5869
rwrist 6.33877
rhand -18.7517 10.8959
rfingers 7.12502
rthumb 7.54484 -18.9496
lclavicle 1.03853e-014 1.84746e-014
lhumerus -32.6825 5.83138 79.1816
lradius 34.6658
lwrist -1.34308
lhand -21.2985 22.1994
lfingers 7.12502
lthumb 5.08615 52.1184
rfemur -10.3456 -2.98799 7.69598
rtibia 32.8984
rfoot -15.3771 -3.81384
rtoes -8.13644
lfemur -1.95268 -1.69975 -20.1631
ltibia 21.5874
lfoot -13.3231 -3.22394
ltoes -5.63851
4875
root 11.3443 17.9293 -8.81215 -902.691 6.77521 -899.119
lowerback 11.8485 0.746575 -4.20428
upperback 1.09872 0.641818 1.36028
thorax -5.55454 0.481712 3.69807
lowerneck -10.2957 -8.95829 -11.3364
upperneck 40.6778 -7.96503 5.77217
head 17.5648 -2.67614 3.73819
rclavicle 2.24254e-015 9.06955e-016
rhumerus -39.5066 -23.9706 -70.4787
rradius 32.5648
rwrist 6.20749
rhand -18.8105 11.1784
rfingers 7.12502
rthumb 7.48808 -18.6691
lclavicle 2.24254e-015 9.06955e-016
lhumerus -32.7508 5.79381 79.1944
lradius 34.57
lwrist -1.32608
lhand -21.2648 22.0493
lfingers 7.12502
lthumb 5.1187 51.9675
rfemur -10.1615 -2.68767 7.60288
rtibia 32.2102
rfoot -14.285 -4.20085
rtoes -8.1479
lfemur -2.01756 -1.8025 -19.7206
ltibia 21.5309
lfoot -13.3976 -3.22183
ltoes -6.12394
4876
root 11.3927 17.9281 -8.82168 -902.586 6.61202 -899.032
lowerback 11.8216 0.719176 -4.11605
upperback 1.02724 0.614564 1.38998
thorax -5.61214 0.467345 3.68416
lowerneck -10.3668 -9.01968 -11.4415
upperneck 40.7338 -8.08864 5.9549
head 17.6548 -2.71398 3.82341
rclavicle -2.63623e-015 -1.39895e-014
rhumerus -39.4569 -23.752 -70.6038
rradius 32.5165
rwrist 6.11447
rhand -19.0134 11.0418
rfingers 7.12502
rthumb 7.29225 -18.8125
lclavicle -2.63623e-015 -1.39895e-014
lhumerus -32.8351 5.68829 79.1872
lradius 34.4687
lwrist -1.15408
lhand -21.3721 21.9238
lfingers 7.12502
lthumb 5.01508 51.8445
rfemur -9.8918 -2.34622 7.33447
rtibia 31.5173
rfoot -12.8905 -4.82286
rtoes -7.5543
lfemur -2.08609 -2.0445 -19.4886
ltibia 21.4984
lfoot -13.3995 -3.12256
ltoes -5.99774
4877
root 11.4416 17.9281 -8.83485 -902.478 6.46494 -899.22
lowerback 11.5994 0.723292 -4.27173
upperback 1.06382 0.604045 1.3213
thorax -5.44918 0.459984 3.70185
lowerneck -10.4514 -9.03003 -11.3654
upperneck 40.7498 -8.13077 5.99212
head 17.6876 -2.71258 3.81965
rclavicle 6.10331e-016 7.97623e-015
rhumerus -39.2763 -23.7404 -70.7675
rradius 32.5184
rwrist 5.97712
rhand -19.1085 10.7865
rfingers 7.12502
rthumb 7.20042 -19.071
lclavicle 6.10331e-016 7.97623e-015
lhumerus -32.7559 5.71873 79.1687
lradius 34.3936
lwrist -1.12449
lhand -21.4656 21.8655
lfingers 7.12502
lthumb 4.92478 51.7883
rfemur -9.68731 -1.87239 6.76248
rtibia 30.8573
rfoot -11.6288 -5.17625
rtoes -6.69662
lfemur -2.1673 -2.21031 -19.5545
ltibia 21.4551
lfoot -13.4199 -3.07697
ltoes -5.87696
4878
root 11.4915 17.9304 -8.84849 -902.393 6.39387 -899.256
lowerback 11.4011 0.726728 -4.30873
upperback 1.1216 0.615046 1.33576
thorax -5.27907 0.461763 3.73652
lowerneck -10.5178 -9.02224 -11.3947
upperneck 40.6985 -8.14262 6.05097
head 17.6827 -2.71887 3.84502
rclavicle -1.01178e-014 -6.43565e-015
rhumerus -39.0499 -23.5547 -70.965
rradius 32.6091
rwrist 5.82336
rhand -19.2539 10.7061
rfingers 7.12502
rthumb 7.0601 -19.1561
lclavicle -1.01178e-014 -6.43565e-015
lhumerus -32.7167 5.88857 79.1605
lradius 34.3526
lwrist -1.32398
lhand -21.2629 22.0303
lfingers 7.12502
lthumb 5.12054 51.9484
rfemur -9.49731 -1.25017 6.38585
rtibia 30.238
rfoot -10.6598 -5.27514
rtoes -6.94808
lfemur -2.1601 -2.22923 -19.4337
ltibia 21.3792
lfoot -13.4657 -3.04622
ltoes -6.29952
4879
root 11.5444 17.9318 -8.85986 -902.406 6.25027 -899.219
lowerback 11.4488 0.709056 -4.30811
upperback 1.10535 0.592688 1.39085
thorax -5.32129 0.452747 3.79798
lowerneck -10.4708 -9.01389 -11.4872
upperneck 40.626 -8.13192 6.08839
head 17.637 -2.7274 3.87686
rclavicle 2.51587e-016 5.2181e-015
rhumerus -39.0621 -22.9878 -71.2098
rradius 33.0416
rwrist 5.39301
rhand -19.3023 10.4106
rfingers 7.12502
rthumb 7.01333 -19.4532
lclavicle 2.51587e-016 5.2181e-015
lhumerus -32.7598 6.14845 79.0975
lradius 34.2137
lwrist -1.51011
lhand -21.1373 21.888
lfingers 7.12502
lthumb 5.2418 51.8032
rfemur -9.17629 -0.806102 6.11467
rtibia 29.6605
rfoot -9.95956 -5.22494
rtoes -8.26612
lfemur -2.03168 -2.39087 -19.2304
ltibia 21.2689
lfoot -13.4807 -3.00192
ltoes -6.45373
